<?xml version="1.0" encoding="UTF-8"?>
<svg width="150" height="150" viewBox="0 0 150 150" fill="none" xmlns="http://www.w3.org/2000/svg">
  <rect width="150" height="150" fill="white"/>
  <path d="M75 30C49.6 30 29 50.6 29 76C29 101.4 49.6 122 75 122C100.4 122 121 101.4 121 76C121 50.6 100.4 30 75 30ZM75 117C52.4 117 34 98.6 34 76C34 53.4 52.4 35 75 35C97.6 35 116 53.4 116 76C116 98.6 97.6 117 75 117Z" fill="#121212"/>
  <path d="M74.1 55.1C69.9 55.1 65.8 56.5 62.7 59.1C59.5 61.7 57.5 65.3 57.5 69.1C57.5 72.9 59.5 76.5 62.7 79.1C65.8 81.7 69.9 83.1 74.1 83.1C78.3 83.1 82.4 81.7 85.5 79.1C88.7 76.5 90.7 72.9 90.7 69.1C90.7 65.3 88.7 61.7 85.5 59.1C82.4 56.5 78.3 55.1 74.1 55.1Z" fill="#121212"/>
  <path d="M65 92.5C60.5 94.2 57 98.3 57 103V111H93V103C93 98.3 89.5 94.2 85 92.5C82.5 95.5 78.5 97.5 74 97.5C69.5 97.5 65.5 95.5 63 92.5H65Z" fill="#121212"/>
  <text x="75" y="77" font-family="Arial, sans-serif" font-size="40" font-weight="bold" text-anchor="middle" fill="white">S</text>
</svg>